<svg width="45.000000" height="56.000000" viewBox="0 0 45 56" fill="none" xmlns="http://www.w3.org/2000/svg" xmlns:xlink="http://www.w3.org/1999/xlink">
	<desc>
			Created with Pixso.
	</desc>
	<defs/>
	<path d="M22.26 5.23C21.96 5.23 21.68 5.19 21.41 5.11L21.41 9.04L23.11 9.04L23.11 5.11C22.84 5.19 22.56 5.23 22.26 5.23Z" fill="#135693" fill-opacity="1.000000" fill-rule="nonzero"/>
	<path d="M25.25 2.45C25.25 4.05 23.91 5.35 22.26 5.35C20.61 5.35 19.27 4.05 19.27 2.45C19.27 0.86 20.61 -0.44 22.26 -0.44C23.91 -0.44 25.25 0.86 25.25 2.45Z" fill="#6BC1DD" fill-opacity="1.000000" fill-rule="evenodd"/>
	<g opacity="0.150000">
		<g opacity="0.150000">
			<path d="M21.79 2.45C21.79 1.29 22.5 0.29 23.52 -0.17C23.14 -0.34 22.71 -0.44 22.26 -0.44C20.61 -0.44 19.27 0.86 19.27 2.45C19.27 4.05 20.61 5.34 22.26 5.34C22.71 5.34 23.14 5.25 23.52 5.08C22.5 4.62 21.79 3.62 21.79 2.45Z" fill="#440075" fill-opacity="1.000000" fill-rule="nonzero"/>
		</g>
	</g>
	<path d="M41.31 13.56L39.55 13.56L39.55 29.29L41.31 29.29C42.28 29.29 43.07 28.52 43.07 27.59L43.07 15.26C43.07 14.32 42.28 13.56 41.31 13.56Z" fill="#9EA7AF" fill-opacity="1.000000" fill-rule="nonzero"/>
	<path d="M4.97 13.56L3.09 13.56C2.13 13.56 1.34 14.32 1.34 15.26L1.34 27.59C1.34 28.52 2.13 29.29 3.09 29.29L4.97 29.29L4.97 13.56Z" fill="#9EA7AF" fill-opacity="1.000000" fill-rule="nonzero"/>
	<path d="M6.17 49.87L3.76 49.87C2.93 49.87 2.17 49.63 1.53 49.21L1.53 54.75C1.53 55.37 2.06 55.88 2.7 55.88L6.17 55.88L6.17 49.87Z" fill="#C5CCD3" fill-opacity="1.000000" fill-rule="nonzero"/>
	<path d="M40.77 49.87L38.35 49.87L38.35 55.88L41.82 55.88C42.47 55.88 42.99 55.37 42.99 54.75L42.99 49.21C42.36 49.63 41.59 49.87 40.77 49.87Z" fill="#C5CCD3" fill-opacity="1.000000" fill-rule="nonzero"/>
	<g opacity="0.150000">
		<path d="M3.99 54.75L3.99 49.87L3.76 49.87C2.93 49.87 2.17 49.63 1.53 49.21L1.53 54.75C1.53 55.37 2.06 55.88 2.7 55.88L5.16 55.88C4.52 55.88 3.99 55.37 3.99 54.75Z" fill="#440075" fill-opacity="1.000000" fill-rule="nonzero"/>
	</g>
	<path d="M6.17 41.21L3.76 41.21C1.56 41.21 -0.23 42.93 -0.23 45.06L-0.23 46.19C-0.23 48.32 1.56 50.04 3.76 50.04L6.17 50.04L6.17 41.21Z" fill="#E6E9ED" fill-opacity="1.000000" fill-rule="nonzero"/>
	<path d="M40.77 41.21L38.35 41.21L38.35 50.04L40.77 50.04C42.97 50.04 44.75 48.32 44.75 46.19L44.75 45.06C44.75 42.93 42.97 41.21 40.77 41.21Z" fill="#E6E9ED" fill-opacity="1.000000" fill-rule="nonzero"/>
	<g opacity="0.150000">
		<g opacity="0.150000">
			<path d="M2.59 46.19L2.59 45.06C2.59 42.93 4.37 41.21 6.57 41.21L3.76 41.21C1.56 41.21 -0.23 42.93 -0.23 45.06L-0.23 46.19C-0.23 48.32 1.56 50.04 3.76 50.04L6.57 50.04C4.37 50.04 2.59 48.32 2.59 46.19Z" fill="#440075" fill-opacity="1.000000" fill-rule="nonzero"/>
		</g>
	</g>
	<path d="M18.38 33.67L26.15 33.67L26.15 36.48L18.38 36.48L18.38 33.67Z" fill="#9EA7AF" fill-opacity="1.000000" fill-rule="evenodd"/>
	<g opacity="0.150000">
		<path d="M18.38 33.67L21.21 33.67L21.21 36.48L18.38 36.48L18.38 33.67Z" fill="#440075" fill-opacity="1.000000" fill-rule="evenodd"/>
	</g>
	<path d="M31.41 39.16L31.41 37.33C31.41 36.79 30.95 36.35 30.4 36.35L13.79 36.35C13.23 36.35 12.78 36.79 12.78 37.33L12.78 39.16L31.41 39.16Z" fill="#C5CCD3" fill-opacity="1.000000" fill-rule="nonzero"/>
	<g opacity="0.150000">
		<path d="M16.28 39.16L16.28 37.33C16.28 36.79 16.73 36.35 17.29 36.35L13.79 36.35C13.23 36.35 12.78 36.79 12.78 37.33L12.78 39.16L16.28 39.16Z" fill="#440075" fill-opacity="1.000000" fill-rule="nonzero"/>
	</g>
	<path d="M36.71 38.97L7.81 38.97C6.85 38.97 6.06 39.73 6.06 40.67L6.06 55.88L38.47 55.88L38.47 40.67C38.47 39.73 37.68 38.97 36.71 38.97Z" fill="#9EA7AF" fill-opacity="1.000000" fill-rule="nonzero"/>
	<g opacity="0.150000">
		<g opacity="0.150000">
			<path d="M11.17 38.97L7.81 38.97C6.85 38.97 6.06 39.73 6.06 40.67L6.06 55.88L9.41 55.88L9.41 40.67C9.41 39.73 10.2 38.97 11.17 38.97Z" fill="#440075" fill-opacity="1.000000" fill-rule="nonzero"/>
		</g>
	</g>
	<path d="M39.67 32.1C39.67 33.03 38.88 33.8 37.91 33.8L6.62 33.8C5.65 33.8 4.86 33.03 4.86 32.1L4.86 10.63C4.86 9.7 5.65 8.93 6.62 8.93L37.91 8.93C38.88 8.93 39.67 9.7 39.67 10.63L39.67 32.1Z" fill="#C5CCD3" fill-opacity="1.000000" fill-rule="nonzero"/>
	<g opacity="0.150000">
		<g opacity="0.150000">
			<path d="M8.21 32.1L8.21 10.63C8.21 9.7 9 8.93 9.96 8.93L6.62 8.93C5.65 8.93 4.86 9.7 4.86 10.63L4.86 32.1C4.86 33.03 5.65 33.8 6.62 33.8L9.96 33.8C9 33.8 8.21 33.03 8.21 32.1Z" fill="#440075" fill-opacity="1.000000" fill-rule="nonzero"/>
		</g>
	</g>
	<path d="M35.51 21.4C35.51 24.64 32.79 27.27 29.44 27.27L15.08 27.27C11.73 27.27 9.02 24.64 9.02 21.4C9.02 18.15 11.73 15.53 15.08 15.53L29.44 15.53C32.79 15.53 35.51 18.15 35.51 21.4Z" fill="#135693" fill-opacity="1.000000" fill-rule="nonzero"/>
	<g opacity="0.150000">
		<g opacity="0.150000">
			<path d="M12.42 21.4C12.42 18.15 15.14 15.53 18.49 15.53L15.08 15.53C11.73 15.53 9.02 18.15 9.02 21.4C9.02 24.64 11.73 27.27 15.08 27.27L18.49 27.27C15.14 27.27 12.42 24.64 12.42 21.4Z" fill="#440075" fill-opacity="1.000000" fill-rule="nonzero"/>
		</g>
	</g>
	<path d="M16.84 21.4C16.84 22.66 15.78 23.69 14.48 23.69C13.18 23.69 12.12 22.66 12.12 21.4C12.12 20.13 13.18 19.11 14.48 19.11C15.78 19.11 16.84 20.13 16.84 21.4Z" fill="#6BC1DD" fill-opacity="1.000000" fill-rule="evenodd"/>
	<path d="M32.45 21.4C32.45 22.66 31.39 23.69 30.09 23.69C28.79 23.69 27.73 22.66 27.73 21.4C27.73 20.13 28.79 19.1 30.09 19.1C31.39 19.1 32.45 20.13 32.45 21.4Z" fill="#6BC1DD" fill-opacity="1.000000" fill-rule="evenodd"/>
	<path d="M32.73 55.88L32.73 46C32.73 45.38 32.2 44.87 31.56 44.87L12.97 44.87C12.32 44.87 11.79 45.38 11.79 46L11.79 55.88L32.73 55.88Z" fill="#135693" fill-opacity="1.000000" fill-rule="nonzero"/>
	<path d="M24.37 55.88L24.37 52.69C24.37 52.5 24.21 52.35 24.02 52.35L20.51 52.35C20.31 52.35 20.15 52.5 20.15 52.69L20.15 55.88L24.37 55.88Z" fill="#FFC502" fill-opacity="1.000000" fill-rule="nonzero"/>
	<path d="M17.34 48.41L14.65 48.41C14.18 48.41 13.8 48.04 13.8 47.59C13.8 47.13 14.18 46.76 14.65 46.76L17.34 46.76C17.81 46.76 18.2 47.13 18.2 47.59C18.2 48.04 17.81 48.41 17.34 48.41Z" fill="#C5CCD3" fill-opacity="1.000000" fill-rule="nonzero"/>
	<path d="M16.17 50.43L14.65 50.43C14.18 50.43 13.8 50.06 13.8 49.6C13.8 49.14 14.18 48.78 14.65 48.78L16.17 48.78C16.64 48.78 17.02 49.14 17.02 49.6C17.02 50.06 16.64 50.43 16.17 50.43Z" fill="#C5CCD3" fill-opacity="1.000000" fill-rule="nonzero"/>
	<path d="M17.34 52.44L14.65 52.44C14.18 52.44 13.8 52.07 13.8 51.62C13.8 51.16 14.18 50.79 14.65 50.79L17.34 50.79C17.81 50.79 18.2 51.16 18.2 51.62C18.2 52.07 17.81 52.44 17.34 52.44Z" fill="#C5CCD3" fill-opacity="1.000000" fill-rule="nonzero"/>
	<path d="M15.82 54.45L14.65 54.45C14.18 54.45 13.8 54.08 13.8 53.63C13.8 53.17 14.18 52.8 14.65 52.8L15.82 52.8C16.29 52.8 16.67 53.17 16.67 53.63C16.67 54.08 16.29 54.45 15.82 54.45Z" fill="#C5CCD3" fill-opacity="1.000000" fill-rule="nonzero"/>
	<path d="M29.49 53.63L27.41 53.63C26.92 53.63 26.52 53.24 26.52 52.76C26.52 52.29 26.92 51.9 27.41 51.9L29.49 51.9C29.98 51.9 30.38 52.29 30.38 52.76C30.38 53.24 29.98 53.63 29.49 53.63Z" fill="#E6E9ED" fill-opacity="1.000000" fill-rule="nonzero"/>
	<path d="M30.33 48.82C30.33 49.82 29.49 50.63 28.45 50.63C27.41 50.63 26.57 49.82 26.57 48.82C26.57 47.81 27.41 47 28.45 47C29.49 47 30.33 47.81 30.33 48.82Z" fill="#5DC647" fill-opacity="1.000000" fill-rule="evenodd"/>
	<path d="M24.42 49.77C24.42 49.96 24.26 50.12 24.06 50.12L20.46 50.12C20.26 50.12 20.1 49.96 20.1 49.77L20.1 47.87C20.1 47.68 20.26 47.52 20.46 47.52L24.06 47.52C24.26 47.52 24.42 47.68 24.42 47.87L24.42 49.77Z" fill="#6BC1DD" fill-opacity="1.000000" fill-rule="nonzero"/>
</svg>
